<?xml version="1.0" encoding="UTF-8" standalone="no"?>
<!DOCTYPE svg PUBLIC "-//W3C//DTD SVG 1.1//EN" "http://www.w3.org/Graphics/SVG/1.1/DTD/svg11.dtd">
<svg width="100%" height="100%" viewBox="0 0 668 182" version="1.1" xmlns="http://www.w3.org/2000/svg" xmlns:xlink="http://www.w3.org/1999/xlink" xml:space="preserve" style="fill-rule:evenodd;clip-rule:evenodd;stroke-linejoin:round;stroke-miterlimit:1.41421;">
    <g transform="matrix(0.999866,-3.27046e-20,-3.28342e-20,0.996051,-67.2707,-88.0074)">
        <path d="M123.906,191.026C127.005,195.45 128.555,199.451 128.555,203.029C128.555,208.118 126.738,212.48 123.103,216.115C119.467,219.75 115.105,221.568 110.016,221.568C101.728,221.568 94.749,216.261 89.078,205.646C84.28,196.777 81.881,187.762 81.881,178.601C81.881,163.334 87.297,150.284 98.13,139.451C108.962,128.619 122.012,123.203 137.279,123.203C152.547,123.203 165.633,128.619 176.538,139.451C187.444,150.284 192.896,163.334 192.896,178.601L192.896,215.897C192.896,231.165 187.48,244.178 176.647,254.938C165.815,265.698 152.765,271.078 137.498,271.078L119.613,271.078C114.524,271.078 110.125,269.26 106.418,265.625C102.71,261.99 100.856,257.628 100.856,252.539C100.856,247.45 102.673,243.088 106.308,239.453C109.944,235.818 114.306,234 119.395,234L137.279,234C142.369,234 146.694,232.219 150.257,228.656C153.819,225.094 155.6,220.841 155.6,215.897L155.6,178.601C155.6,173.512 153.819,169.186 150.257,165.624C146.694,162.062 142.441,160.28 137.498,160.28C132.408,160.28 128.046,162.098 124.411,165.733C120.776,169.368 118.959,173.658 118.959,178.601C118.959,182.18 120.508,186.181 123.608,190.604L123.906,191.026ZM415.121,182.27C415.121,193.679 411.841,204.091 405.281,213.503C398.72,222.916 390.021,229.548 379.182,233.398L379.182,251.582C379.182,256.574 377.399,260.852 373.834,264.418C370.268,267.983 365.99,269.766 360.998,269.766C356.006,269.766 351.728,267.983 348.162,264.418C344.597,260.852 342.814,256.574 342.814,251.582L342.814,233.398C331.975,229.548 323.204,222.916 316.501,213.503C309.798,204.091 306.447,193.679 306.447,182.27L306.447,142.908C306.447,137.916 308.229,133.637 311.795,130.072C315.36,126.507 319.639,124.724 324.63,124.724C329.622,124.724 333.901,126.507 337.466,130.072C341.031,133.637 342.814,137.916 342.814,142.908L342.814,182.27C342.814,187.119 344.597,191.326 348.162,194.892C351.728,198.457 355.935,200.24 360.784,200.24C365.633,200.24 369.805,198.493 373.299,194.999C376.793,191.504 378.54,187.262 378.54,182.27L378.54,142.908C378.54,137.916 380.323,133.637 383.888,130.072C387.454,126.507 391.732,124.724 396.724,124.724C401.715,124.724 406.029,126.507 409.666,130.072C413.303,133.637 415.121,137.916 415.121,142.908L415.121,182.27ZM255.532,197.459L255.532,215.215C255.532,220.206 253.75,224.485 250.184,228.05C246.619,231.616 242.34,233.398 237.348,233.398C232.214,233.398 227.864,231.616 224.299,228.05C220.734,224.485 218.951,220.206 218.951,215.215L218.951,142.694C218.951,127.719 224.263,114.919 234.888,104.294C245.513,93.669 258.313,88.356 273.288,88.356L280.348,88.356C285.339,88.356 289.618,90.139 293.183,93.704C296.749,97.27 298.531,101.548 298.531,106.54C298.531,111.532 296.749,115.81 293.183,119.376C289.618,122.941 285.339,124.724 280.348,124.724L273.502,124.724C268.51,124.724 264.232,126.507 260.666,130.072C257.101,133.637 255.318,137.845 255.318,142.694L255.318,161.091L280.348,161.091C285.339,161.091 289.618,162.874 293.183,166.439C296.749,170.005 298.531,174.283 298.531,179.275C298.531,184.267 296.749,188.545 293.183,192.111C289.618,195.676 285.339,197.459 280.348,197.459L255.532,197.459ZM512.886,233.398L477.802,233.398C462.827,233.398 449.991,228.086 439.295,217.461C428.599,206.836 423.251,194.036 423.251,179.061C423.251,164.086 428.563,151.322 439.188,140.768C449.813,130.215 462.613,124.938 477.588,124.938L512.672,124.938C517.663,124.938 521.978,126.72 525.614,130.286C529.251,133.851 531.07,138.13 531.07,143.121C531.07,148.113 529.287,152.392 525.721,155.957C522.156,159.522 517.878,161.305 512.886,161.305L477.802,161.305C472.81,161.305 468.532,163.052 464.966,166.546C461.401,170.041 459.618,174.212 459.618,179.061C459.618,183.91 461.401,188.117 464.966,191.683C468.532,195.248 472.739,197.031 477.588,197.031L512.672,197.031C517.664,197.031 521.978,198.814 525.614,202.379C529.251,205.945 531.07,210.223 531.07,215.215C531.07,220.206 529.287,224.485 525.721,228.05C522.156,231.616 517.878,233.398 512.886,233.398ZM630.117,233.398L593.964,233.398C579.132,233.398 566.367,228.086 555.671,217.461C544.975,206.836 539.627,194.036 539.627,179.061C539.627,164.086 544.939,151.322 555.564,140.768C566.189,130.215 578.918,124.938 593.75,124.938C608.725,124.938 621.56,130.215 632.257,140.768C642.953,151.322 648.301,164.086 648.301,179.061L648.301,215.215C648.301,220.206 646.518,224.485 642.953,228.05C639.388,231.616 635.109,233.398 630.117,233.398ZM717.186,233.398L712.693,233.398C697.718,233.398 684.883,228.086 674.186,217.461C663.49,206.836 658.142,194.036 658.142,179.061L658.142,106.54C658.142,101.548 659.96,97.27 663.597,93.704C667.234,90.139 671.548,88.356 676.539,88.356C681.531,88.356 685.81,90.139 689.375,93.704C692.941,97.27 694.723,101.548 694.723,106.54L694.723,124.724L717.186,124.724C722.177,124.724 726.456,126.507 730.021,130.072C733.587,133.637 735.369,137.916 735.369,142.908C735.369,147.899 733.587,152.178 730.021,155.743C726.456,159.308 722.177,161.091 717.186,161.091L694.509,161.091L694.509,179.061C694.509,183.91 696.292,188.117 699.857,191.683C703.423,195.248 707.63,197.031 712.479,197.031L717.186,197.031C722.177,197.031 726.456,198.814 730.021,202.379C733.587,205.945 735.369,210.223 735.369,215.215C735.369,220.206 733.587,224.485 730.021,228.05C726.456,231.616 722.177,233.398 717.186,233.398ZM611.934,179.061C611.934,174.212 610.187,170.041 606.693,166.546C603.198,163.052 598.955,161.305 593.964,161.305C588.972,161.305 584.729,163.052 581.235,166.546C577.741,170.041 575.994,174.212 575.994,179.061C575.994,184.053 577.741,188.296 581.235,191.79C584.729,195.284 588.901,197.031 593.75,197.031L611.72,197.031L611.934,179.061ZM71.454,143.13C68.553,133.444 67.331,123.327 67.331,123.327C66.938,120.604 68.827,118.817 71.527,119.341C71.527,119.341 81.319,121.156 88.822,123.027C96.326,124.898 103.829,127.674 103.829,127.674C103.829,127.674 95.625,132.451 88.611,140.268C81.596,148.084 77.985,159.097 77.985,159.097C77.985,159.097 74.355,152.817 71.454,143.13ZM204.493,143.13C207.394,133.444 208.616,123.327 208.616,123.327C209.009,120.604 207.12,118.817 204.42,119.341C204.42,119.341 194.629,121.156 187.125,123.027C179.621,124.898 172.118,127.674 172.118,127.674C172.118,127.674 180.322,132.451 187.337,140.268C194.351,148.084 197.962,159.097 197.962,159.097C197.962,159.097 201.593,152.817 204.493,143.13Z" style="fill:rgb(36,117,255);"/>
    </g>
</svg>
