<svg width="516" height="516" viewBox="0 0 516 516" fill="none" xmlns="http://www.w3.org/2000/svg">
<mask id="mask0" mask-type="alpha" maskUnits="userSpaceOnUse" x="0" y="0" width="516" height="516">
<path d="M516 160.667C516 154.531 516 148.395 515.937 142.321C515.937 137.187 515.875 131.99 515.687 126.855C515.374 115.585 514.748 104.252 512.744 93.1693C510.865 82.024 507.296 71.2545 502.161 61.1736C491.828 40.8868 475.359 24.4194 455.069 14.0881C444.987 9.01638 434.154 5.4474 423.007 3.50637C411.861 1.50273 400.526 0.876593 389.317 0.563524C384.182 0.438296 378.984 0.375683 373.85 0.313069C367.713 0.250455 361.576 0.250455 355.439 0.250455L284.301 0H231.073L161.187 0.250455C155.05 0.250455 148.914 0.250455 142.777 0.313069C137.579 0.375683 132.444 0.375683 127.247 0.563524C115.975 0.876593 104.64 1.50273 93.4937 3.50637C82.3471 5.38478 71.5136 8.95377 61.3689 14.0255C41.017 24.3568 24.485 40.8242 14.1524 61.111C9.01748 71.1918 5.44806 82.024 3.56942 93.1693C1.56553 104.252 0.876699 115.585 0.626214 126.855C0.500971 131.99 0.43835 137.187 0.375728 142.321C0.313107 148.457 0 156.033 0 162.17V231.107V284.893L0.313107 355.271C0.313107 361.407 0.313107 367.543 0.375728 373.679C0.43835 378.876 0.43835 384.01 0.626214 389.207C0.93932 400.478 1.56553 411.811 3.56942 422.956C5.51068 434.101 9.01748 444.933 14.1524 455.014C24.485 475.301 41.017 491.831 61.3689 502.162C71.5136 507.234 82.2845 510.803 93.4937 512.744C104.64 514.748 115.975 515.436 127.247 515.687C132.444 515.812 137.579 515.875 142.777 515.937C148.914 516 155.05 516 161.187 516H231.699H285.052H355.439C361.576 516 367.713 516 373.85 515.937C378.984 515.937 384.182 515.875 389.317 515.687C400.589 515.374 411.923 514.748 423.007 512.744C434.154 510.866 444.925 507.297 455.069 502.162C475.359 491.831 491.828 475.301 502.161 455.014C507.233 444.933 510.802 434.101 512.744 422.956C514.748 411.811 515.374 400.478 515.687 389.207C515.812 384.01 515.875 378.876 515.937 373.679C516 367.543 516 361.407 516 355.271C516 355.271 516 286.145 516 284.893V231.045C516 230.106 516 160.667 516 160.667Z" fill="url(#paint0_linear)"/>
</mask>
<g mask="url(#mask0)">
<path d="M516 160.667C516 154.531 516 148.395 515.937 142.321C515.937 137.187 515.875 131.99 515.687 126.855C515.374 115.585 514.748 104.252 512.744 93.1693C510.865 82.024 507.296 71.2545 502.161 61.1736C491.828 40.8868 475.359 24.4194 455.069 14.0881C444.987 9.01638 434.154 5.4474 423.007 3.50637C411.861 1.50273 400.526 0.876593 389.317 0.563524C384.182 0.438296 378.984 0.375683 373.85 0.313069C367.713 0.250455 361.576 0.250455 355.439 0.250455L284.301 0H231.073L161.187 0.250455C155.05 0.250455 148.914 0.250455 142.777 0.313069C137.579 0.375683 132.444 0.375683 127.247 0.563524C115.975 0.876593 104.64 1.50273 93.4937 3.50637C82.3471 5.38478 71.5136 8.95377 61.3689 14.0255C41.017 24.3568 24.485 40.8242 14.1524 61.111C9.01748 71.1918 5.44806 82.024 3.56942 93.1693C1.56553 104.252 0.876699 115.585 0.626214 126.855C0.500971 131.99 0.43835 137.187 0.375728 142.321C0.313107 148.457 0 156.033 0 162.17V231.107V284.893L0.313107 355.271C0.313107 361.407 0.313107 367.543 0.375728 373.679C0.43835 378.876 0.43835 384.01 0.626214 389.207C0.93932 400.478 1.56553 411.811 3.56942 422.956C5.51068 434.101 9.01748 444.933 14.1524 455.014C24.485 475.301 41.017 491.831 61.3689 502.162C71.5136 507.234 82.2845 510.803 93.4937 512.744C104.64 514.748 115.975 515.436 127.247 515.687C132.444 515.812 137.579 515.875 142.777 515.937C148.914 516 155.05 516 161.187 516H231.699H285.052H355.439C361.576 516 367.713 516 373.85 515.937C378.984 515.937 384.182 515.875 389.317 515.687C400.589 515.374 411.923 514.748 423.007 512.744C434.154 510.866 444.925 507.297 455.069 502.162C475.359 491.831 491.828 475.301 502.161 455.014C507.233 444.933 510.802 434.101 512.744 422.956C514.748 411.811 515.374 400.478 515.687 389.207C515.812 384.01 515.875 378.876 515.937 373.679C516 367.543 516 361.407 516 355.271C516 355.271 516 286.145 516 284.893V231.045C516 230.106 516 160.667 516 160.667Z" fill="url(#paint1_linear)"/>
<g filter="url(#filter0_dii)">
<path fill-rule="evenodd" clip-rule="evenodd" d="M81.3597 111.84C77 120.397 77 131.598 77 154V327C77 349.402 77 360.603 81.3597 369.16C85.1947 376.686 91.3139 382.805 98.8404 386.64C107.397 391 118.598 391 141 391H187.751C193.412 391 196.243 391 198.859 391.724C201.081 392.338 203.181 393.332 205.064 394.662C207.281 396.228 209.075 398.418 212.662 402.798L230.6 424.7L233.197 427.883C241.821 438.451 246.133 443.735 251.341 445.614C255.716 447.192 260.504 447.196 264.882 445.626C270.093 443.756 274.414 438.48 283.057 427.927L285.7 424.7L303.638 402.798C307.225 398.418 309.019 396.228 311.236 394.662C313.119 393.332 315.219 392.338 317.441 391.724C320.057 391 322.888 391 328.549 391H379C401.402 391 412.603 391 421.16 386.64C428.686 382.805 434.805 376.686 438.64 369.16C443 360.603 443 349.402 443 327V154C443 131.598 443 120.397 438.64 111.84C434.805 104.314 428.686 98.1947 421.16 94.3597C412.603 90 401.402 90 379 90H141C118.598 90 107.397 90 98.8404 94.3597C91.3139 98.1947 85.1947 104.314 81.3597 111.84Z" fill="url(#paint2_linear)"/>
</g>
<path d="M328.75 333.602C328.45 333.602 328.15 333.602 327.85 333.602C313.35 333.502 304.35 317.902 311.45 305.302C319.65 290.802 330.05 272.202 342.65 249.602C345.05 245.202 345.05 239.902 342.55 235.602C337.75 227.302 330.75 215.202 321.45 199.302C318.75 194.702 312.15 194.602 309.25 199.102C294.55 222.802 270.55 261.502 237.25 315.202C230.15 326.702 217.65 333.602 204.15 333.602H202.55C188.65 333.602 175.75 326.202 168.85 314.102C160.65 299.802 149.65 280.702 135.75 256.602C130.75 247.902 130.75 237.202 135.75 228.402C144.65 213.002 157.45 190.402 174.15 160.702C177.55 154.702 183.95 150.902 190.95 151.002H191.35C205.85 151.102 214.85 166.702 207.75 179.302C199.55 193.802 189.15 212.402 176.45 235.002C174.05 239.302 174.05 244.702 176.55 249.002C181.25 257.302 188.15 269.402 197.25 285.302C199.85 289.902 206.55 290.102 209.35 285.602C224.45 261.902 249.05 223.102 283.35 169.302C290.45 158.202 302.55 151.402 315.75 151.302H316.25C330.35 151.102 343.45 158.602 350.45 170.802C358.65 185.102 369.65 204.202 383.45 228.202C388.45 236.802 388.45 247.502 383.65 256.202C374.95 271.702 362.25 294.302 345.55 324.002C342.15 330.002 335.65 333.702 328.75 333.602Z" fill="url(#paint3_linear)"/>
</g>
<defs>
<filter id="filter0_dii" x="27" y="60" width="466" height="456.801" filterUnits="userSpaceOnUse" color-interpolation-filters="sRGB">
<feFlood flood-opacity="0" result="BackgroundImageFix"/>
<feColorMatrix in="SourceAlpha" type="matrix" values="0 0 0 0 0 0 0 0 0 0 0 0 0 0 0 0 0 0 127 0"/>
<feOffset dy="20"/>
<feGaussianBlur stdDeviation="25"/>
<feColorMatrix type="matrix" values="0 0 0 0 0 0 0 0 0 0 0 0 0 0 0 0 0 0 0.25 0"/>
<feBlend mode="normal" in2="BackgroundImageFix" result="effect1_dropShadow"/>
<feBlend mode="normal" in="SourceGraphic" in2="effect1_dropShadow" result="shape"/>
<feColorMatrix in="SourceAlpha" type="matrix" values="0 0 0 0 0 0 0 0 0 0 0 0 0 0 0 0 0 0 127 0" result="hardAlpha"/>
<feOffset dy="-20"/>
<feGaussianBlur stdDeviation="25"/>
<feComposite in2="hardAlpha" operator="arithmetic" k2="-1" k3="1"/>
<feColorMatrix type="matrix" values="0 0 0 0 0 0 0 0 0 0.52 0 0 0 0 1 0 0 0 0.35 0"/>
<feBlend mode="normal" in2="shape" result="effect2_innerShadow"/>
<feColorMatrix in="SourceAlpha" type="matrix" values="0 0 0 0 0 0 0 0 0 0 0 0 0 0 0 0 0 0 127 0" result="hardAlpha"/>
<feOffset dy="-8"/>
<feGaussianBlur stdDeviation="5"/>
<feComposite in2="hardAlpha" operator="arithmetic" k2="-1" k3="1"/>
<feColorMatrix type="matrix" values="0 0 0 0 0.608333 0 0 0 0 0.812 0 0 0 0 1 0 0 0 1 0"/>
<feBlend mode="normal" in2="effect2_innerShadow" result="effect3_innerShadow"/>
</filter>
<linearGradient id="paint0_linear" x1="258" y1="0" x2="258" y2="516" gradientUnits="userSpaceOnUse">
<stop stop-color="#00D1FF"/>
<stop offset="0.739583" stop-color="#0085FF"/>
<stop offset="1" stop-color="#0069CA"/>
</linearGradient>
<linearGradient id="paint1_linear" x1="258" y1="0" x2="258" y2="516" gradientUnits="userSpaceOnUse">
<stop stop-color="#00D1FF"/>
<stop offset="0.739583" stop-color="#0085FF"/>
<stop offset="1" stop-color="#0069CA"/>
</linearGradient>
<linearGradient id="paint2_linear" x1="260" y1="90" x2="260" y2="446.801" gradientUnits="userSpaceOnUse">
<stop stop-color="#E9E9E9"/>
<stop offset="0.177083" stop-color="white" stop-opacity="0.921875"/>
<stop offset="0.53125" stop-color="#FBFDFE" stop-opacity="0.92521"/>
<stop offset="1" stop-color="#ABC6DF"/>
</linearGradient>
<linearGradient id="paint3_linear" x1="259.613" y1="2.00192" x2="259.613" y2="512.002" gradientUnits="userSpaceOnUse">
<stop stop-color="#00D1FF"/>
<stop offset="1" stop-color="#0085FF"/>
</linearGradient>
</defs>
</svg>
