<svg width="414" height="407" viewBox="0 0 414 407" fill="none" xmlns="http://www.w3.org/2000/svg">
<g filter="url(#filter0_d_701_27)">
<path d="M65 25C45.67 25 30 40.67 30 60V281.05C30 300.38 45.67 316.05 65 316.05H152.328L161.302 327.17L192.786 366.324C198.784 373.783 210.138 373.793 216.149 366.345L256.739 316.05H348.901C368.231 316.05 383.901 300.38 383.901 281.05V60C383.901 40.67 368.231 25 348.901 25H65Z" fill="white"/>
</g>
<path d="M383.901 82.8207H30V60C30 40.67 45.67 25 65 25H348.901C368.231 25 383.901 40.67 383.901 60V82.8207Z" fill="#F44336"/>
<path d="M383.901 82.8208H30V140.642H383.901V82.8208Z" fill="#FF9800"/>
<path d="M383.901 140.000H30V198.462H383.901V140.642Z" fill="#FFC107"/>
<path d="M383.901 198.000H30V256.283H383.901V198.462Z" fill="#4CAF50"/>
<path d="M383.901 256.000H30V281.05C30 300.38 45.67 316.05 65 316.05H152.328L152.398 316.137H256.669L256.739 316.05H348.901C368.231 316.05 383.901 300.38 383.901 281.05V256.283Z" fill="#247ACA"/>
<path d="M349.257 316.000H64.6443C64.7627 316.049 64.8813 316.05 65 316.05H152.328L161.302 327.17L192.786 366.324C195.778 370.045 200.103 371.912 204.432 371.924C204.462 371.924 204.491 371.924 204.52 371.924C208.84 371.912 213.157 370.052 216.149 366.345L256.739 316.05H348.901C349.02 316.05 349.138 316.049 349.257 316.048Z" fill="#673AB7"/>
<g filter="url(#filter1_d_701_27)">
<path d="M273.446 258.514C273.156 258.514 272.865 258.514 272.575 258.514C258.555 258.417 249.852 243.333 256.718 231.149C264.646 217.129 274.703 199.144 286.886 177.291C289.207 173.036 289.207 167.911 286.789 163.753C282.148 155.728 275.38 144.028 266.387 128.653C263.776 124.205 257.394 124.109 254.59 128.46C240.376 151.377 217.17 188.797 184.97 240.722C178.105 251.842 166.018 258.514 152.965 258.514H151.417C137.977 258.514 125.503 251.358 118.832 239.658C110.903 225.831 100.266 207.363 86.8257 184.059C81.991 175.647 81.991 165.301 86.8257 156.791C95.4315 141.901 107.808 120.048 123.956 91.3294C127.244 85.5278 133.432 81.8534 140.201 81.9501H140.588C154.608 82.0468 163.311 97.1311 156.446 109.315C148.517 123.335 138.46 141.32 126.18 163.173C123.86 167.331 123.86 172.553 126.277 176.71C130.822 184.736 137.494 196.436 146.293 211.81C148.807 216.258 155.285 216.452 157.993 212.101C172.594 189.184 196.38 151.667 229.546 99.6452C236.412 88.9121 248.112 82.3369 260.875 82.2402H261.359C274.993 82.0468 287.66 89.2989 294.428 101.096C302.357 114.923 312.994 133.391 326.337 156.598C331.172 164.914 331.172 175.26 326.531 183.672C318.118 198.66 305.838 220.513 289.69 249.231C286.403 255.033 280.118 258.611 273.446 258.514Z" fill="white"/>
</g>
<defs>
<filter id="filter0_d_701_27" x="0" y="0" width="413.901" height="406.924" filterUnits="userSpaceOnUse" color-interpolation-filters="sRGB">
<feFlood flood-opacity="0" result="BackgroundImageFix"/>
<feColorMatrix in="SourceAlpha" type="matrix" values="0 0 0 0 0 0 0 0 0 0 0 0 0 0 0 0 0 0 127 0" result="hardAlpha"/>
<feOffset dy="5"/>
<feGaussianBlur stdDeviation="15"/>
<feColorMatrix type="matrix" values="0 0 0 0 0 0 0 0 0 0 0 0 0 0 0 0 0 0 0.15 0"/>
<feBlend mode="normal" in2="BackgroundImageFix" result="effect1_dropShadow_701_27"/>
<feBlend mode="normal" in="SourceGraphic" in2="effect1_dropShadow_701_27" result="shape"/>
</filter>
<filter id="filter1_d_701_27" x="68.1997" y="71.9482" width="276.788" height="206.567" filterUnits="userSpaceOnUse" color-interpolation-filters="sRGB">
<feFlood flood-opacity="0" result="BackgroundImageFix"/>
<feColorMatrix in="SourceAlpha" type="matrix" values="0 0 0 0 0 0 0 0 0 0 0 0 0 0 0 0 0 0 127 0" result="hardAlpha"/>
<feOffset dy="5"/>
<feGaussianBlur stdDeviation="7.5"/>
<feColorMatrix type="matrix" values="0 0 0 0 0 0 0 0 0 0 0 0 0 0 0 0 0 0 0.25 0"/>
<feBlend mode="normal" in2="BackgroundImageFix" result="effect1_dropShadow_701_27"/>
<feBlend mode="normal" in="SourceGraphic" in2="effect1_dropShadow_701_27" result="shape"/>
</filter>
</defs>
</svg>
