<svg width="354" height="347" viewBox="0 0 354 347" fill="none" xmlns="http://www.w3.org/2000/svg">
<path fill-rule="evenodd" clip-rule="evenodd" d="M0 35C0 15.67 15.67 0 35 0H318.901C338.231 0 353.901 15.67 353.901 35V256.05C353.901 275.38 338.231 291.05 318.901 291.05H226.739L217.765 302.17L186.149 341.345C180.138 348.793 168.784 348.783 162.786 341.324L131.302 302.17L122.328 291.05H35C15.67 291.05 0 275.38 0 256.05V35ZM242.575 233.514H243.445C250.117 233.611 256.402 230.033 259.69 224.231C275.838 195.513 288.118 173.66 296.531 158.673C301.172 150.26 301.172 139.914 296.337 131.598C291.991 124.04 287.933 116.985 284.161 110.429C276.352 96.8541 269.775 85.4198 264.428 76.0958C257.659 64.2991 244.992 57.047 231.359 57.2404H230.875C218.111 57.3371 206.411 63.9123 199.546 74.6454C178.666 107.396 161.504 134.397 148.011 155.626C140.071 168.118 133.401 178.611 127.992 187.101C125.285 191.452 118.807 191.259 116.292 186.811C107.493 171.436 100.821 159.736 96.2767 151.711C93.8594 147.553 93.8594 142.331 96.1801 138.174C100.564 130.371 104.665 123.062 108.487 116.25C115.37 103.983 121.347 93.3296 126.445 84.3148C133.311 72.1313 124.608 57.047 110.587 56.9503H110.201C103.432 56.8537 97.2437 60.528 93.9561 66.3297C77.8081 95.0479 65.4313 116.901 56.8255 131.792C51.9908 140.301 51.9908 150.647 56.8255 159.059C70.266 182.363 80.9024 200.831 88.8313 214.659C95.5032 226.359 107.977 233.514 121.417 233.514H122.964C136.018 233.514 148.105 226.842 154.97 215.722C187.169 163.798 210.376 126.377 224.59 103.46C227.394 99.109 233.776 99.2057 236.387 103.654C245.379 119.028 252.148 130.728 256.789 138.754C259.207 142.912 259.207 148.036 256.886 152.291C244.702 174.144 234.646 192.129 226.717 206.15C219.852 218.333 228.554 233.417 242.575 233.514Z" fill="white"/>
</svg>
